<?xml version="1.0" encoding="UTF-8" standalone="no"?>
<!-- Created with Inkscape (http://www.inkscape.org/) -->

<svg
   version="1.1"
   id="svg196"
   width="142.39627"
   height="199.10345"
   viewBox="0 0 142.39627 199.10345"
   xmlns="http://www.w3.org/2000/svg"
   xmlns:svg="http://www.w3.org/2000/svg">
  <defs
     id="defs200" />
  <g
     id="g204"
     transform="matrix(1.3333333,0,0,-1.3333333,-92.058395,256.48625)">
    <path
       d="m 78.9617,80.6719 c 5.1363,7.9461 13.2082,10.1 13.2082,10.1 l 19.3411,7.1672 h 18.463 l 19.335,-7.1672 c 0,0 8.071,-2.1539 13.209,-10.1 H 78.9617"
       style="fill:#ace4f7;fill-opacity:1;fill-rule:nonzero;stroke:none;stroke-width:0.1"
       id="path256" />
    <path
       d="m 145.961,43.0371 h 29.88 c 0,5.1027 -0.333,12.3758 -0.333,12.3758 -1.756,30.5551 -24.024,35.359 -24.024,35.359 -17.363,4.2043 -7.899,-22.652 -7.899,-22.652 -0.454,-6.4719 0.509,-15.1777 2.376,-25.0828"
       style="fill:#63cce8;fill-opacity:1;fill-rule:nonzero;stroke:none;stroke-width:0.1"
       id="path258" />
    <path
       d="m 108.069,91.3609 h 25.347 V 116.074 H 108.069 V 91.3609"
       style="fill:#ace4f7;fill-opacity:1;fill-rule:nonzero;stroke:none;stroke-width:0.1"
       id="path260" />
    <path
       d="m 133.416,104.587 v 11.487 h -25.347 v -5.69 c 7.23,-6.017 15.939,-6.781 25.347,-5.797"
       style="fill:#80d6f5;fill-opacity:1;fill-rule:nonzero;stroke:none;stroke-width:0.1"
       id="path262" />
    <path
       d="m 160.4,43.0371 c 0.486,13.325 0.338,16.9848 0.219,21.5301 -0.265,10.1238 -2.43,18.6808 -9.103,26.1957 l -0.032,0.009 -18.07,5.8922 c 0,0 3.8,-6.6512 -12.807,-6.6512 0,0 -10.94,0.4262 -12.538,6.6512 L 89.7188,90.7719 c 0,0 -15.6872,-3.8578 -18.377,-20.3699 L 80.5645,53.4461 80.2359,43.0371 H 160.4"
       style="fill:#63cce8;fill-opacity:1;fill-rule:nonzero;stroke:none;stroke-width:0.1"
       id="path264" />
    <path
       d="m 150.917,152.887 c -0.001,5.874 -0.25,11.735 -0.112,17.602 0.09,3.75 0.435,2.784 -3.909,3.194 -6.02,0.573 -8.032,-10.609 -8.454,-15.447 -0.582,-6.67 0.862,-13.849 1.972,-20.351 0.399,-2.348 0.291,-7.055 2.75,-8.156 2.102,-0.941 4.296,1.381 5.401,3.099 2.539,3.954 2.09,9.997 2.258,14.484 0.069,1.86 0.094,3.718 0.094,5.575"
       style="fill:#5c73c1;fill-opacity:1;fill-rule:nonzero;stroke:none;stroke-width:0.1"
       id="path266" />
    <path
       d="m 148.312,119.513 c -2.562,-10.024 -7.074,-12.787 -7.074,-12.787 l -6.051,-1.18 c -3.482,0.441 -9.488,1.86 -9.488,1.86 -13.823,4.699 -17.828,5.967 -19.971,11.221 -0.09,0.223 -10.896,37.731 -10.896,37.731 -1.7675,19.306 18.44,23.323 21.491,23.827 3.018,0.696 22.259,6.043 27.943,-12.49 0,0 8.396,-21.474 4.046,-48.182"
       style="fill:#ace4f7;fill-opacity:1;fill-rule:nonzero;stroke:none;stroke-width:0.1"
       id="path268" />
    <path
       d="m 92.7574,174.079 c -6.716,-3.236 -6.9453,-9.231 -6.6312,-16.047 0.2437,-5.285 1.8765,-9.793 3.7664,-14.919 3.2234,-8.745 3.2234,-8.745 6.0808,-13.772 0,0 4.4516,-6.919 10.1846,-11.662 -1.661,6.578 -2.126,11.492 -3.638,16.545 -1.821,6.067 -1.288,14.191 1.414,20.416 0,0 1.53,4.145 7.813,5.328 6.283,1.183 0,0 0,0 l -18.9896,14.111"
       style="fill:#4f62a5;fill-opacity:1;fill-rule:nonzero;stroke:none;stroke-width:0.1"
       id="path270" />
    <path
       d="m 103.792,135.527 c 0,0 -3.417,7.444 -8.7869,3.034 0,0 -2.4453,-1.908 0.5664,-6.89 0,0 4.3734,-7.162 9.6135,-3.193 l -1.393,7.049"
       style="fill:#ace4f7;fill-opacity:1;fill-rule:nonzero;stroke:none;stroke-width:0.1"
       id="path272" />
    <path
       d="m 103.257,152.887 c 0,0 0.022,-13.327 2.471,-20.395 l -2.597,-0.515 c 0,0 -1.366,9.14 -6.0708,9.248 l 6.1968,11.662"
       style="fill:#4f62a5;fill-opacity:1;fill-rule:nonzero;stroke:none;stroke-width:0.1"
       id="path274" />
    <path
       d="m 154.239,181.429 c 21.602,-22 -43.768,-21.777 -43.768,-21.777 0,0 -6.857,-3.17 -17.7136,14.427 0,0 -2.9281,13.764 27.9826,18.097 0,0 20.432,2.506 33.499,-10.747"
       style="fill:#5c73c1;fill-opacity:1;fill-rule:nonzero;stroke:none;stroke-width:0.1"
       id="path276" />
    <path
       d="M 96.975,43.0371 H 69.0438 c 0.0089,0 0.0972,6.6301 0.1125,7.1008 0.2093,6.5191 0.6218,13.0859 1.7968,19.5121 1.6785,9.184 6.1387,17.3289 15.9563,19.6629 4.4929,1.068 8.4875,-1.6508 10.9211,-5.3488 0,0 4.4445,-5.4789 -0.8555,-40.927"
       style="fill:#63cce8;fill-opacity:1;fill-rule:nonzero;stroke:none;stroke-width:0.1"
       id="path278" />
  </g>
</svg>
