<?xml version="1.0" encoding="UTF-8" standalone="no"?>
<!-- Created with Inkscape (http://www.inkscape.org/) -->

<svg
   version="1.1"
   id="svg196"
   width="138.62772"
   height="200.74611"
   viewBox="0 0 138.62772 200.74611"
   sodipodi:docname="56556.eps"
   xmlns:inkscape="http://www.inkscape.org/namespaces/inkscape"
   xmlns:sodipodi="http://sodipodi.sourceforge.net/DTD/sodipodi-0.dtd"
   xmlns="http://www.w3.org/2000/svg"
   xmlns:svg="http://www.w3.org/2000/svg">
  <defs
     id="defs200" />
  <sodipodi:namedview
     id="namedview198"
     pagecolor="#ffffff"
     bordercolor="#000000"
     borderopacity="0.25"
     inkscape:showpageshadow="2"
     inkscape:pageopacity="0.0"
     inkscape:pagecheckerboard="0"
     inkscape:deskcolor="#d1d1d1"
     showgrid="false" />
  <g
     id="g204"
     inkscape:groupmode="layer"
     inkscape:label="Page 1"
     transform="matrix(1.3333333,0,0,-1.3333333,-336.2475,509.55011)">
    <path
       d="m 312.719,288.669 c -4.603,1.671 -7.504,5.517 -12.968,5.036 -9.718,-0.858 -16.613,-11.781 -25.966,-4.37 -11.32,8.976 -8.347,62.967 -3.439,75.196 4.162,10.372 11.835,0.233 22.784,3.717 12.722,4.048 23.689,-5.99 30.267,-16.413 6.845,-10.853 10.371,-24.673 9.36,-37.406 -0.933,-11.764 -3.059,-31.925 -20.038,-25.76"
       style="fill:#5c73c1;fill-opacity:1;fill-rule:nonzero;stroke:none;stroke-width:0.1"
       id="path236"
       inkscape:export-filename="woman.png"
       inkscape:export-xdpi="96"
       inkscape:export-ydpi="96" />
    <path
       d="m 356.144,231.603 h -23.853 l -4.265,17.223 c 0,0 -3.467,26.143 14.459,26.508 0,0 9.304,-6.523 11.84,-21.866 0,0 2.007,-12.263 1.819,-21.865"
       style="fill:#63cce8;fill-opacity:1;fill-rule:nonzero;stroke:none;stroke-width:0.1"
       id="path238" />
    <path
       d="m 273.295,231.603 3.218,12.993 c 0,0 3.467,26.142 -14.46,26.507 0,0 -10.75,-7.831 -9.809,-39.5 h 21.051"
       style="fill:#63cce8;fill-opacity:1;fill-rule:nonzero;stroke:none;stroke-width:0.1"
       id="path240" />
    <path
       d="m 291.313,281.267 h 21.764 v 31.862 h -21.764 v -31.862"
       style="fill:#ace4f7;fill-opacity:1;fill-rule:nonzero;stroke:none;stroke-width:0.1"
       id="path242" />
    <path
       d="m 313.077,300.125 v 13.004 h -21.764 v -18.732 c 7.18,0.219 15.698,1.518 21.764,5.728"
       style="fill:#80d6f5;fill-opacity:1;fill-rule:nonzero;stroke:none;stroke-width:0.1"
       id="path244" />
    <path
       d="m 262.465,271.104 c 4.884,7.555 12.558,9.605 12.558,9.605 l 18.395,6.814 h 17.555 l 22.489,-6.814 c 0,0 7.679,-2.05 12.562,-9.605 h -83.559"
       style="fill:#ace4f7;fill-opacity:1;fill-rule:nonzero;stroke:none;stroke-width:0.1"
       id="path246" />
    <path
       d="m 266.97,231.603 h 72.466 l -0.463,13.614 10.656,16.124 c -2.368,15.699 -16.167,19.368 -16.167,19.368 l -17.711,5.042 c 0,0 1.056,-5.766 -13.557,-5.766 0,0 -11.74,0 -13.143,5.922 l -14.028,-5.198 c 0,0 -10.277,-3.142 -15.89,-13.531 l 7.837,-21.961 v -13.614"
       style="fill:#63cce8;fill-opacity:1;fill-rule:nonzero;stroke:none;stroke-width:0.1"
       id="path248" />
    <path
       d="m 315.448,310.591 c -0.744,-1.721 -1.78,-3.315 -3.231,-4.713 -3.608,-3.478 -7.839,-6.297 -12.477,-8.201 -5.691,-2.335 -14.282,-2.634 -18.805,2.054 -3.665,3.8 -5.676,9.555 -7.267,14.49 -3.094,9.596 -3.055,20.079 -2.268,30.044 0.18,2.273 0.41,4.548 0.788,6.798 3.541,21.734 22.137,21.686 22.137,21.686 14.043,0.611 26.861,-6.024 29.018,-20.823 0.83,-5.667 -0.263,-11.754 -0.548,-17.421 -0.209,-4.164 -0.72,-8.319 -2.053,-12.291 -1.358,-4.054 -3.601,-7.711 -5.294,-11.623"
       style="fill:#ace4f7;fill-opacity:1;fill-rule:nonzero;stroke:none;stroke-width:0.1"
       id="path250" />
    <path
       d="m 269.896,331.451 c -5.249,16.251 -1.014,35.359 5.259,41.337 17.769,16.951 50.586,10.5 60.614,-15.999 3.097,-8.184 1.643,-38.705 0.239,-48.087 -1.88,-12.568 -6.501,-21.179 -16.045,-21.179 0.255,10.364 -0.54,21.845 0.378,34.515 0.913,12.572 -0.76,12.88 -11.221,18.729 -5.204,2.913 -8.227,5.947 -11.46,10.669 -4,5.846 -0.991,7.891 -8.909,7.627 0,0 -18.404,0.627 -18.855,-27.612"
       style="fill:#5c73c1;fill-opacity:1;fill-rule:nonzero;stroke:none;stroke-width:0.1"
       id="path252" />
    <path
       d="m 317.263,327.162 c 0,0 1.857,7.734 7.804,4.538 0,0 2.685,-1.359 0.75,-6.669 0,0 -2.822,-7.641 -8.56,-4.847 l 0.006,6.978"
       style="fill:#ace4f7;fill-opacity:1;fill-rule:nonzero;stroke:none;stroke-width:0.1"
       id="path254" />
  </g>
</svg>
